# xmcd CD database file
#
# Track frame offsets:
#	150
#	15372
#	47096
#	59883
#	73216
#
# Disc length: 1120 seconds
#
# Revision: 0
# Processed by: cddbd v1.5.2PL0 Copyright (c) Steve Scherf et al.
# Submitted via: CDex 1.50beta10
#
DISCID=45045e05
DTITLE=Kate Lee with No Strings Attached - Are We There Yet
DYEAR=2007
DGENRE=Country
TTITLE0=20 Paces
TTITLE1=Are We There Yet
TTITLE2=Train Song
TTITLE3=Beige
TTITLE4=Frosty Morning
EXTD=YEAR: 2007
EXTT0=
EXTT1=
EXTT2=
EXTT3=
EXTT4=
PLAYORDER=
